<?xml version="1.0" standalone="no"?>
<!DOCTYPE svg PUBLIC "-//W3C//DTD SVG 20010904//EN"
 "http://www.w3.org/TR/2001/REC-SVG-20010904/DTD/svg10.dtd">
<svg version="1.0" xmlns="http://www.w3.org/2000/svg"
 width="1024.000000pt" height="1024.000000pt" viewBox="0 0 1024.000000 1024.000000"
 preserveAspectRatio="xMidYMid meet">

<g transform="translate(0.000000,1024.000000) scale(0.100000,-0.100000)"
fill="#000000" stroke="none">
<path d="M0 5120 l0 -5120 5120 0 5120 0 0 5120 0 5120 -5120 0 -5120 0 0
-5120z m3358 2943 c-32 -2 -84 -2 -115 0 -32 2 -6 3 57 3 63 0 89 -1 58 -3z
m69 -205 c-1 -40 -3 -8 -3 72 0 80 2 112 3 73 2 -40 2 -106 0 -145z m311 205
c-10 -2 -26 -2 -35 0 -10 3 -2 5 17 5 19 0 27 -2 18 -5z m1887 -3 c272 -31
559 -171 741 -361 386 -406 406 -1040 44 -1428 -27 -30 -50 -57 -50 -61 0 -3
30 -21 68 -39 37 -18 86 -46 109 -62 24 -15 53 -34 65 -40 17 -9 168 -12 608
-10 l585 2 15 22 c88 128 219 181 332 134 56 -24 123 -91 148 -149 67 -156
-73 -358 -248 -358 -64 0 -125 32 -190 97 l-63 64 -502 -1 c-275 0 -503 -2
-505 -4 -2 -2 17 -30 41 -63 37 -48 127 -210 127 -228 0 -3 -136 -5 -303 -5
l-303 0 -49 50 c-27 28 -46 50 -41 50 5 0 2 10 -6 23 -8 12 -14 30 -12 39 1
10 -3 16 -9 15 -7 -1 -11 4 -10 11 2 8 -9 12 -32 12 l-35 0 6 40 c6 35 4 40
-12 41 -17 1 -17 2 -1 6 23 6 22 23 -3 23 -28 0 -25 20 3 21 15 0 17 2 7 6
-24 9 -25 16 -24 130 1 94 -2 116 -23 167 -23 56 -24 59 -6 79 16 18 16 20 1
14 -19 -7 -28 19 -26 73 1 33 1 32 8 -10 l7 -45 1 53 c1 33 -2 51 -8 47 -20
-13 -32 7 -15 25 11 12 14 26 10 39 -4 13 -2 21 5 21 8 0 8 6 0 21 -9 17 -8
23 7 35 17 13 17 13 0 14 -14 0 -17 5 -12 20 5 15 3 18 -9 14 -9 -3 -16 -11
-16 -18 0 -6 -5 -4 -10 4 -7 11 -10 12 -10 2 0 -8 -9 -27 -21 -43 -14 -19 -18
-36 -14 -51 7 -22 6 -22 -7 -5 -13 18 -16 17 -41 -16 -14 -19 -23 -38 -19 -42
4 -5 1 -5 -6 -1 -7 5 -21 2 -30 -7 -21 -18 -112 -70 -112 -64 0 2 26 20 58 40
159 98 255 278 253 477 0 52 -7 122 -16 154 -23 88 -81 191 -147 259 -68 73
-70 90 -2 20 26 -26 51 -48 55 -48 4 0 11 -4 16 -9 5 -5 3 -6 -4 -2 -20 11
-15 -9 6 -28 10 -9 26 -34 36 -56 10 -22 21 -40 25 -40 4 0 11 -16 14 -35 4
-21 11 -33 17 -29 7 4 7 10 0 17 -15 15 -14 45 2 50 6 2 5 3 -4 2 -11 -2 -16
6 -16 26 0 17 5 26 11 22 6 -3 5 0 -2 8 -11 12 -15 11 -26 -4 -11 -14 -15 -15
-19 -3 -7 18 1 26 26 26 19 0 20 1 2 20 -16 18 -17 20 -1 20 14 0 15 7 10 43
-9 59 -23 81 -24 37 0 -20 5 -41 12 -48 13 -13 -1 -16 -17 -4 -15 11 -13 92 3
92 6 0 12 7 12 15 0 8 -6 15 -14 15 -25 0 -29 21 -7 27 20 5 20 6 4 19 -14 10
-16 17 -7 31 9 14 8 21 -5 30 -14 11 -14 12 3 13 14 0 17 5 11 23 -18 58 -18
67 1 68 14 0 11 4 -11 14 -27 13 -28 14 -7 15 28 0 19 20 -10 20 -14 0 -18 5
-15 15 4 8 2 17 -3 20 -6 4 -9 16 -9 28 1 15 3 17 6 6 2 -10 13 -19 24 -22 25
-7 24 -2 -6 31 -14 15 -23 33 -19 42 3 8 8 29 11 45 4 17 11 33 17 37 14 9 1
22 -13 13 -6 -3 -11 -19 -11 -36 0 -16 -5 -29 -10 -29 -6 0 -9 12 -8 28 2 22
-1 27 -17 25 -17 -1 -18 0 -4 10 15 12 22 60 7 51 -4 -3 -17 0 -28 6 -18 10
-19 14 -8 28 8 9 8 13 1 9 -6 -4 -13 -4 -16 0 -2 5 -2 2 -1 -4 2 -7 0 -13 -5
-13 -5 0 -11 8 -13 18 -5 18 -41 31 -203 69 -62 15 -183 17 -1005 23 l-935 6
890 2 c553 1 924 -2 980 -8z m244 -79 c7 -5 12 -13 10 -18 -2 -5 -12 -1 -21 9
-19 19 -13 24 11 9z m71 -61 c24 -15 7 -18 -20 -3 -14 7 -18 13 -10 13 8 0 22
-4 30 -10z m-3037 -407 c-35 -2 -91 -2 -125 0 -35 2 -7 3 62 3 69 0 97 -1 63
-3z m120 0 c-7 -2 -21 -2 -30 0 -10 3 -4 5 12 5 17 0 24 -2 18 -5z m44 1 c-3
-3 -12 -4 -19 -1 -8 3 -5 6 6 6 11 1 17 -2 13 -5z m2590 -50 c-3 -3 -12 -4
-19 -1 -8 3 -5 6 6 6 11 1 17 -2 13 -5z m73 -24 c8 -5 11 -10 5 -10 -5 0 -17
5 -25 10 -8 5 -10 10 -5 10 6 0 17 -5 25 -10z m110 -62 c0 -6 -6 -5 -15 2 -8
7 -15 14 -15 16 0 2 7 1 15 -2 8 -4 15 -11 15 -16z m200 -138 c0 -5 -2 -10 -4
-10 -3 0 -8 5 -11 10 -3 6 -1 10 4 10 6 0 11 -4 11 -10z m30 -80 c0 -5 -4 -10
-10 -10 -5 0 -10 5 -10 10 0 6 5 10 10 10 6 0 10 -4 10 -10z m-3393 -96 c-3
-3 -12 -4 -19 -1 -8 3 -5 6 6 6 11 1 17 -2 13 -5z m81 -1 c-10 -2 -26 -2 -35
0 -10 3 -2 5 17 5 19 0 27 -2 18 -5z m105 0 c-13 -2 -33 -2 -45 0 -13 2 -3 4
22 4 25 0 35 -2 23 -4z m74 1 c-3 -3 -12 -4 -19 -1 -8 3 -5 6 6 6 11 1 17 -2
13 -5z m3093 -544 c0 -5 -5 -10 -11 -10 -5 0 -7 5 -4 10 3 6 8 10 11 10 2 0 4
-4 4 -10z m36 -17 c-10 -10 -19 5 -10 18 6 11 8 11 12 0 2 -7 1 -15 -2 -18z
m-6 -29 c0 -2 -7 -4 -15 -4 -8 0 -15 4 -15 10 0 5 7 7 15 4 8 -4 15 -8 15 -10z
m-65 -44 c3 -5 1 -10 -4 -10 -6 0 -11 5 -11 10 0 6 2 10 4 10 3 0 8 -4 11 -10z
m-235 -80 c-8 -5 -19 -10 -25 -10 -5 0 -3 5 5 10 8 5 20 10 25 10 6 0 3 -5 -5
-10z m-113 -36 c-3 -3 -12 -4 -19 -1 -8 3 -5 6 6 6 11 1 17 -2 13 -5z m448
-143 c3 -5 1 -12 -5 -16 -5 -3 -10 1 -10 9 0 18 6 21 15 7z m0 -81 c3 -5 1
-10 -4 -10 -6 0 -11 5 -11 10 0 6 2 10 4 10 3 0 8 -4 11 -10z m55 -260 c0 -5
-4 -10 -10 -10 -5 0 -10 5 -10 10 0 6 5 10 10 10 6 0 10 -4 10 -10z m-313 -16
c-3 -3 -12 -4 -19 -1 -8 3 -5 6 6 6 11 1 17 -2 13 -5z m100 -10 c-3 -3 -12 -4
-19 -1 -8 3 -5 6 6 6 11 1 17 -2 13 -5z m40 -10 c-3 -3 -12 -4 -19 -1 -8 3 -5
6 6 6 11 1 17 -2 13 -5z m131 -34 c23 -11 42 -16 42 -12 0 4 5 -1 11 -10 5 -9
15 -15 22 -12 14 5 73 -43 64 -53 -3 -3 -18 4 -34 15 -38 27 -129 72 -178 88
-39 13 -39 13 -5 8 19 -3 54 -14 78 -24z m108 -25 c10 -8 14 -15 7 -15 -6 0
-15 5 -18 11 -4 6 -14 8 -22 5 -8 -3 -11 -1 -8 4 8 14 18 13 41 -5z m1533
-290 c60 -21 104 -58 133 -112 34 -62 42 -120 28 -185 -25 -118 -115 -188
-242 -188 -48 0 -80 6 -107 19 -40 21 -95 78 -113 117 l-11 24 -476 1 c-262 0
-494 4 -516 8 l-40 9 40 2 c35 2 37 3 15 10 -24 8 -24 8 -2 9 12 1 22 7 22 16
0 9 9 15 23 16 21 0 21 1 2 8 -11 5 -23 7 -27 4 -16 -9 -7 10 10 23 10 8 12
13 5 14 -20 0 -15 20 5 21 9 0 -14 9 -53 19 l-70 18 532 1 532 1 15 29 c21 39
98 106 138 118 48 16 110 15 157 -2z m-739 -556 c0 -21 -31 -133 -56 -203
-105 -295 -365 -584 -631 -703 -90 -40 -218 -81 -271 -87 -26 -3 -38 -3 -27 0
11 3 54 15 95 27 64 18 71 22 50 29 -18 5 -13 6 15 3 l40 -4 -32 14 c-45 20
-41 27 5 11 31 -11 43 -11 67 -1 17 8 24 14 18 14 -7 1 -13 12 -13 26 0 14 -4
25 -10 25 -5 0 -10 -9 -10 -20 0 -12 -7 -20 -16 -20 -11 0 -14 5 -10 16 3 9 9
27 12 40 3 13 10 24 16 24 5 0 7 4 3 10 -3 5 -13 7 -23 3 -11 -3 -9 1 6 12 22
16 24 38 7 78 -5 13 -2 22 14 33 19 13 21 25 21 100 0 55 4 84 11 84 7 0 9
-11 6 -30 -4 -16 -2 -32 3 -35 6 -3 10 3 10 15 0 12 5 31 11 42 7 12 7 18 1
14 -12 -7 -42 3 -42 14 0 5 10 10 22 12 12 2 23 9 24 16 1 7 0 8 -3 2 -2 -5
-23 -10 -46 -9 l-42 1 35 11 35 11 -30 4 c-47 6 -57 24 -10 19 22 -2 30 -2 18
0 -29 6 -30 23 -1 23 17 0 19 3 10 12 -9 9 -15 9 -24 0 -15 -15 -28 -16 -28
-2 0 6 5 10 10 10 6 0 17 6 24 12 11 11 11 17 -1 35 -16 25 -6 31 17 11 12
-11 12 -10 1 4 -9 13 -10 22 -1 38 6 11 15 18 20 15 5 -3 11 -1 15 4 3 6 -3 8
-12 7 -21 -4 -113 -86 -97 -86 5 0 16 6 24 13 11 9 11 8 0 -7 -14 -17 -13 -18
8 -12 12 4 22 3 22 -2 0 -5 -9 -12 -20 -15 -11 -3 -20 -2 -20 3 0 15 -33 20
-49 7 -55 -47 -191 -101 -276 -111 l-50 -5 55 13 c236 55 388 176 481 382 l29
64 295 0 c209 0 295 -3 295 -11z m-1192 -456 c-15 -2 -42 -2 -60 0 -18 2 -6 4
27 4 33 0 48 -2 33 -4z m447 -93 c-6 -28 -35 -43 -35 -19 0 5 4 8 9 5 5 -3 9
0 8 7 0 6 1 26 2 42 1 26 3 28 12 12 6 -10 7 -31 4 -47z m-19 -86 c-21 -20
-28 -17 -14 5 7 11 16 17 20 15 5 -3 2 -12 -6 -20z m-9 -130 c-3 -3 -12 -4
-19 -1 -8 3 -5 6 6 6 11 1 17 -2 13 -5z m33 -139 c0 -7 -39 -12 -49 -5 -7 4 1
7 18 8 17 0 31 -1 31 -3z m-277 -102 c-7 -2 -19 -2 -25 0 -7 3 -2 5 12 5 14 0
19 -2 13 -5z m-125 -10 c-10 -2 -26 -2 -35 0 -10 3 -2 5 17 5 19 0 27 -2 18
-5z m-3573 -810 c-11 -3 -23 -10 -27 -17 -5 -7 -8 -5 -8 7 0 12 7 17 28 16 21
-1 22 -2 7 -6z m88 0 c-13 -2 -33 -2 -45 0 -13 2 -3 4 22 4 25 0 35 -2 23 -4z
m1650 -1 c-10 -6 -13 -116 -16 -473 l-2 -464 -3 473 c-2 444 -1 472 16 472 12
0 13 -3 5 -8z m1957 -22 c58 -58 19 -150 -63 -150 -30 0 -66 26 -78 57 -12 31
5 88 29 103 30 17 90 12 112 -10z m2595 -15 c82 -22 144 -69 179 -138 39 -77
33 -87 -52 -87 -67 0 -70 1 -82 29 -18 44 -41 60 -104 73 -73 16 -140 0 -178
-42 -50 -55 -31 -138 40 -174 15 -8 72 -26 127 -40 144 -38 220 -77 255 -133
77 -122 30 -292 -100 -358 -193 -98 -456 -19 -514 153 -9 25 -16 49 -16 54 0
4 36 8 80 8 77 0 80 -1 86 -25 13 -51 102 -105 174 -105 46 0 103 22 132 50
23 24 28 37 28 80 0 74 -37 110 -140 135 -141 34 -225 64 -264 96 -107 89 -99
281 16 372 79 63 211 83 333 52z m-6907 -2 l-218 -3 -3 -448 -2 -447 -3 453
-2 452 223 -2 222 -3 -217 -2z m3362 -300 c91 -186 154 -303 159 -297 5 5 71
137 146 294 76 157 142 291 148 298 7 9 36 12 101 10 l91 -3 3 -447 2 -448
-75 0 -75 0 0 98 c0 53 -3 201 -6 327 l-7 230 -57 -110 c-31 -60 -99 -190
-150 -288 l-92 -178 -36 3 -35 3 -146 287 -146 287 -3 -330 -2 -329 -75 0 -75
0 0 450 0 450 90 0 90 0 150 -307z m2990 -26 c0 -370 -4 -401 -63 -479 -40
-53 -115 -95 -185 -104 -59 -7 -164 10 -199 31 l-21 14 18 62 c10 34 20 63 22
64 2 2 31 -6 65 -17 75 -25 121 -19 166 22 l32 28 3 344 c1 189 4 349 7 356 3
8 29 12 80 12 l75 0 0 -333z m-6103 317 c-3 -3 -12 -4 -19 -1 -8 3 -5 6 6 6
11 1 17 -2 13 -5z m40 -10 c-3 -3 -12 -4 -19 -1 -8 3 -5 6 6 6 11 1 17 -2 13
-5z m300 -106 c-2 -13 -4 -3 -4 22 0 25 2 35 4 23 2 -13 2 -33 0 -45z m-320
-140 c-2 -13 -4 -5 -4 17 -1 22 1 32 4 23 2 -10 2 -28 0 -40z m320 -15 c-3
-10 -5 -2 -5 17 0 19 2 27 5 18 2 -10 2 -26 0 -35z m560 41 c-3 -3 -12 -4 -19
-1 -8 3 -5 6 6 6 11 1 17 -2 13 -5z m1477 -129 c-115 -121 -160 -164 -93 -87
83 95 203 221 207 217 2 -2 -49 -61 -114 -130z m2314 119 c20 -8 52 -29 70
-47 54 -52 62 -99 62 -364 l0 -233 -69 0 -69 0 -4 218 c-3 192 -5 221 -22 249
-25 40 -54 53 -119 53 -59 0 -106 -23 -134 -67 -16 -23 -18 -55 -21 -240 l-3
-213 -72 0 -72 0 3 325 3 325 69 0 70 0 0 -45 0 -45 38 38 c21 21 53 43 72 49
52 17 155 15 198 -3z m692 -9 c67 -34 109 -76 139 -137 27 -54 31 -72 31 -145
l0 -83 -236 0 -237 0 6 -37 c19 -118 203 -166 297 -78 23 21 31 23 93 18 63
-5 67 -7 61 -27 -8 -25 -46 -72 -79 -98 -78 -61 -217 -80 -323 -44 -75 25
-155 101 -181 172 -26 69 -29 217 -5 287 27 81 110 157 204 188 44 15 191 5
230 -16z m-1302 -312 l2 -323 -75 0 -75 0 0 325 0 326 73 -3 72 -3 3 -322z
m-2585 278 c-84 -61 -121 -133 -133 -261 l-9 -85 3 87 c4 89 30 165 73 213 25
27 86 75 97 75 5 0 -9 -13 -31 -29z m-733 14 c0 -2 -10 -9 -22 -15 -22 -11
-22 -10 -4 4 21 17 26 19 26 11z m-775 -63 l-28 -27 24 31 c13 17 26 30 28 27
3 -2 -8 -16 -24 -31z m352 1 c-3 -10 -5 -4 -5 12 0 17 2 24 5 18 2 -7 2 -21 0
-30z m364 19 c-5 -10 -17 -25 -26 -32 -22 -18 -53 -80 -64 -127 -7 -29 -9 -32
-10 -13 -1 32 38 115 73 158 31 36 42 41 27 14z m-798 -59 c-7 -2 -21 -2 -30
0 -10 3 -4 5 12 5 17 0 24 -2 18 -5z m207 -89 c0 -2 -9 0 -20 6 -11 6 -20 13
-20 16 0 2 9 0 20 -6 11 -6 20 -13 20 -16z m997 -46 c-3 -7 -5 -2 -5 12 0 14
2 19 5 13 2 -7 2 -19 0 -25z m-770 -20 c-3 -8 -6 -5 -6 6 -1 11 2 17 5 13 3
-3 4 -12 1 -19z m260 -50 c-2 -13 -4 -3 -4 22 0 25 2 35 4 23 2 -13 2 -33 0
-45z m-260 -60 c-2 -18 -4 -4 -4 32 0 36 2 50 4 33 2 -18 2 -48 0 -65z m-300
-10 c-2 -13 -4 -3 -4 22 0 25 2 35 4 23 2 -13 2 -33 0 -45z m2351 -54 c95
-152 117 -191 100 -174 -12 12 -157 247 -176 285 -16 32 16 -15 76 -111z
m-1292 31 c-9 -23 -29 -53 -44 -66 l-27 -24 22 25 c26 30 53 90 54 122 1 19 2
20 6 4 3 -10 -2 -37 -11 -61z m-489 18 c-3 -10 -5 -4 -5 12 0 17 2 24 5 18 2
-7 2 -21 0 -30z m771 -43 c0 -9 -3 -7 -8 5 -5 11 -8 29 -8 40 0 16 2 15 8 -5
4 -14 8 -32 8 -40z m-1364 -17 c-11 -15 -26 -29 -33 -31 -7 -2 -1 7 13 22 14
14 26 31 26 37 0 7 3 9 7 6 4 -4 -2 -19 -13 -34z m615 -8 c0 -5 -4 -3 -9 5 -5
8 -9 22 -9 30 0 16 17 -16 18 -35z m1201 36 c0 -6 -11 -23 -25 -38 l-26 -28
23 37 c25 40 28 43 28 29z m-431 -61 c11 -24 11 -24 -3 -6 -9 11 -16 24 -16
30 0 12 5 7 19 -24z m-749 -10 c6 -11 8 -20 6 -20 -3 0 -10 9 -16 20 -6 11 -8
20 -6 20 3 0 10 -9 16 -20z m-742 -7 c-16 -2 -40 -2 -55 0 -16 2 -3 4 27 4 30
0 43 -2 28 -4z m429 -70 c-2 -16 -4 -5 -4 22 0 28 2 40 4 28 2 -13 2 -35 0
-50z m2273 37 c6 -11 8 -20 6 -20 -3 0 -10 9 -16 20 -6 11 -8 20 -6 20 3 0 10
-9 16 -20z m-1929 -7 c13 -16 12 -17 -3 -4 -17 13 -22 21 -14 21 2 0 10 -8 17
-17z m1937 -80 c-10 -2 -26 -2 -35 0 -10 3 -2 5 17 5 19 0 27 -2 18 -5z"/>
<path d="M5957 7949 c7 -7 15 -10 18 -7 3 3 -2 9 -12 12 -14 6 -15 5 -6 -5z"/>
<path d="M6010 7780 c-12 -7 -12 -10 3 -16 21 -8 29 -3 19 13 -5 8 -13 9 -22
3z"/>
<path d="M6107 7013 c-10 -9 -9 -55 1 -50 4 3 6 -20 5 -51 l-2 -57 11 59 c8
43 8 60 -1 65 -6 4 -9 15 -5 24 6 18 2 22 -9 10z"/>
<path d="M6106 6805 c-3 -9 -6 -24 -5 -33 0 -9 5 -4 10 12 9 32 6 48 -5 21z"/>
<path d="M6087 6723 c-4 -3 -7 -13 -7 -20 0 -8 -9 -33 -20 -55 -23 -48 -24
-52 -9 -43 9 6 22 33 28 57 1 4 6 21 11 38 9 31 8 35 -3 23z"/>
<path d="M6095 6460 c-3 -5 1 -10 10 -10 9 0 13 5 10 10 -3 6 -8 10 -10 10 -2
0 -7 -4 -10 -10z"/>
<path d="M6120 6225 c0 -8 5 -15 10 -15 6 0 10 7 10 15 0 8 -4 15 -10 15 -5 0
-10 -7 -10 -15z"/>
<path d="M6288 5666 c-15 -11 -15 -13 5 -25 12 -8 19 -10 15 -6 -4 5 -3 14 3
21 14 17 -3 25 -23 10z"/>
<path d="M6498 5173 c7 -3 16 -2 19 1 4 3 -2 6 -13 5 -11 0 -14 -3 -6 -6z"/>
<path d="M7102 2649 c-27 -14 -51 -36 -67 -64 -45 -76 -47 -75 141 -75 l167 0
-7 33 c-20 102 -137 156 -234 106z"/>
</g>
</svg>
